<svg xmlns="http://www.w3.org/2000/svg" width="300" height="72" viewBox="0 0 300 72" role="img" aria-label="Noble Bidding Estimation Services">
  <defs>
    <linearGradient id="logo-brass" x1="30" y1="8" x2="30" y2="50" gradientUnits="userSpaceOnUse">
      <stop stop-color="#D9BE6E"/>
      <stop offset="1" stop-color="#8A7233"/>
    </linearGradient>
  </defs>

  <!-- Mark -->
  <g transform="translate(8 12)">
    <path d="M8 41 V28 L22 20 L36 28 V41 Z" fill="#0A1226"/>
    <g fill="#C8A951">
      <rect x="17.5" y="31" width="4" height="4" rx="0.5"/>
      <rect x="24" y="31" width="4" height="4" rx="0.5"/>
      <rect x="17.5" y="36.5" width="4" height="4" rx="0.5"/>
      <rect x="24" y="36.5" width="4" height="4" rx="0.5"/>
    </g>
    <path d="M14 10 L17 17 V25 H11 V17 Z" fill="url(#logo-brass)" opacity="0.9"/>
    <path d="M30 10 L33 17 V25 H27 V17 Z" fill="url(#logo-brass)" opacity="0.9"/>
    <path d="M22 3 L25 12 V25 H19 V12 Z" fill="url(#logo-brass)"/>
  </g>

  <!-- Divider -->
  <rect x="62" y="16" width="1.5" height="40" fill="#0A1226" opacity="0.25"/>

  <!-- Wordmark -->
  <text x="76" y="38" font-family="Archivo, Arial, sans-serif" font-size="22" font-weight="800" letter-spacing="-0.5">
    <tspan fill="#0A1226">NOBLE </tspan><tspan fill="#C8A951">BIDDING</tspan>
  </text>
  <text x="77" y="54" font-family="Inter, Arial, sans-serif" font-size="9.5" font-weight="600" letter-spacing="3.5" fill="#8A7233">ESTIMATION SERVICES</text>
</svg>
